<?xml version="1.0" encoding="utf-8"?>
<!-- Generator: Adobe Illustrator 26.3.1, SVG Export Plug-In . SVG Version: 6.00 Build 0)  -->
<svg version="1.1" xmlns="http://www.w3.org/2000/svg" xmlns:xlink="http://www.w3.org/1999/xlink" x="0px" y="0px"
	 viewBox="0 0 890.3 890.3" style="enable-background:new 0 0 890.3 890.3;" xml:space="preserve">
<style type="text/css">
	.st0{fill:#879BCA;}
	.st1{fill:#223064;}
</style>
<g id="Layer_1">
	<path class="st0" d="M320.23,86.79c-32.78,11.42-63.51,27.22-91.5,46.69l-38.71-53.24c33.52-23.5,70.43-42.48,109.85-56.07
		L320.23,86.79z"/>
	<path class="st0" d="M437.06,0v65.83c-35.2,0.73-69.22,6.26-101.43,15.97l-20.36-62.63C353.9,7.4,394.76,0.75,437.06,0z"/>
	<path class="st0" d="M215.64,143.01c-27.36,20.81-51.8,45.25-72.61,72.61l-53.27-38.69C114.64,144,144,114.64,176.93,89.76
		L215.64,143.01z"/>
	<path class="st0" d="M133.51,228.7c-19.48,27.99-35.28,58.72-46.71,91.5l-62.63-20.34c13.6-39.41,32.57-76.32,56.07-109.84
		L133.51,228.7z"/>
	<path class="st0" d="M81.81,335.59c-9.72,32.23-15.25,66.26-15.98,101.48H0c0.74-42.31,7.4-83.18,19.18-121.82L81.81,335.59z"/>
	<path class="st0" d="M81.8,554.68l-62.62,20.37C7.4,536.41,0.75,495.55,0.01,453.25h65.82C66.56,488.45,72.09,522.47,81.8,554.68z"
		/>
	<path class="st0" d="M133.5,661.59l-53.25,38.7c-23.5-33.52-42.48-70.43-56.07-109.84l62.61-20.37
		C98.22,602.87,114.02,633.6,133.5,661.59z"/>
	<path class="st0" d="M215.63,747.27l-38.7,53.27c-32.93-24.88-62.29-54.24-87.17-87.17l53.27-38.7
		C163.83,702.03,188.27,726.47,215.63,747.27z"/>
	<path class="st0" d="M320.23,803.51l-20.36,62.62c-39.42-13.59-76.33-32.57-109.85-56.07l38.69-53.26
		C256.7,776.28,287.44,792.08,320.23,803.51z"/>
	<path class="st0" d="M437.06,824.47v65.83c-42.3-0.75-83.16-7.4-121.8-19.18l20.35-62.62
		C367.83,818.21,401.85,823.74,437.06,824.47z"/>
	<path class="st0" d="M575.05,871.12c-38.64,11.78-79.5,18.43-121.81,19.18v-65.83c35.22-0.73,69.25-6.27,101.47-15.98
		L575.05,871.12z"/>
	<path class="st0" d="M700.29,810.05c-33.52,23.5-70.43,42.48-109.84,56.07l-20.34-62.62c32.78-11.43,63.52-27.24,91.5-46.71
		L700.29,810.05z"/>
	<path class="st0" d="M800.54,713.37c-24.88,32.93-54.24,62.29-87.17,87.17l-38.68-53.28c27.35-20.8,51.79-45.24,72.6-72.6
		L800.54,713.37z"/>
	<path class="st0" d="M866.13,590.43c-13.59,39.42-32.57,76.33-56.07,109.85l-53.25-38.71c19.48-27.99,35.28-58.72,46.7-91.51
		L866.13,590.43z"/>
	<path class="st0" d="M890.29,453.25c-0.74,42.29-7.39,83.15-19.16,121.78l-62.63-20.35c9.71-32.21,15.24-66.23,15.97-101.43H890.29
		z"/>
	<path class="st0" d="M890.3,437.07h-65.83c-0.73-35.22-6.26-69.25-15.97-101.48l62.62-20.33
		C882.9,353.9,889.56,394.76,890.3,437.07z"/>
	<path class="st0" d="M866.13,299.86L803.5,320.2c-11.43-32.78-27.22-63.5-46.69-91.48l53.25-38.7
		C833.56,223.54,852.53,260.45,866.13,299.86z"/>
	<path class="st0" d="M800.54,176.93l-53.26,38.7c-20.81-27.36-45.25-51.8-72.61-72.61l38.69-53.26
		C746.29,114.64,775.66,144,800.54,176.93z"/>
	<path class="st1" d="M700.28,80.24l-38.69,53.26c-27.98-19.47-58.71-35.27-91.49-46.7l20.33-62.63
		C629.85,37.76,666.76,56.74,700.28,80.24z"/>
	<path class="st1" d="M575.04,19.18l-20.33,62.63c-32.22-9.71-66.25-15.25-101.47-15.98V0C495.54,0.75,536.4,7.4,575.04,19.18z"/>
</g>
<g id="Layer_2">
	<g>
		<path class="st1" d="M313.43,478.25c0-16.97,10.14-28.97,26.7-36.01l-0.21-0.62c-14.9-7.03-21.31-18.61-21.31-30.21
			c0-21.31,18-35.8,41.6-35.8c26.07,0,39.11,16.35,39.11,33.11c0,11.38-5.59,23.59-22.15,31.45v0.62
			c16.77,6.62,27.11,18.42,27.11,34.77c0,23.39-20.07,39.11-45.74,39.11C330.41,514.68,313.43,497.92,313.43,478.25z M385.87,477.43
			c0-16.35-11.38-24.21-29.59-29.39c-15.73,4.56-24.22,14.9-24.22,27.73c-0.62,13.66,9.73,25.67,26.91,25.67
			C375.32,501.44,385.87,491.3,385.87,477.43z M335.79,410.17c0,13.46,10.14,20.7,25.66,24.83c11.59-3.92,20.49-12.2,20.49-24.41
			c0-10.76-6.41-21.95-22.77-21.95C344.07,388.64,335.79,398.58,335.79,410.17z"/>
		<path class="st1" d="M489.33,415.75c0,28.36-14.9,42.43-32.28,42.43c-16.77,0-31.25-13.45-31.45-40.56
			c0-26.91,14.69-42.01,32.49-42.01C476.91,375.62,489.33,390.1,489.33,415.75z M440.08,417.01c-0.42,17.17,6,30.21,17.38,30.21
			c12,0,17.39-12.84,17.39-30.63c0-16.35-4.76-30.01-17.39-30.01C446.08,386.58,440.08,400.03,440.08,417.01z M455.8,514.68
			l79.06-139.07h11.58L467.4,514.68H455.8z M576.87,471.43c0,28.35-14.9,42.42-32.07,42.42c-16.76,0-31.25-13.45-31.46-40.36
			c0-27.11,14.7-42.21,32.49-42.21C564.66,431.28,576.87,445.76,576.87,471.43z M527.62,472.67c-0.21,17.18,6.41,30.21,17.59,30.21
			c12,0,17.38-12.83,17.38-30.63c0-16.35-4.76-30.01-17.38-30.01C533.82,442.24,527.62,455.7,527.62,472.67z"/>
	</g>
</g>
</svg>
