<?xml version="1.0" encoding="utf-8"?>
<!-- Generator: Adobe Illustrator 26.3.1, SVG Export Plug-In . SVG Version: 6.00 Build 0)  -->
<svg version="1.1" id="Layer_1" xmlns="http://www.w3.org/2000/svg" xmlns:xlink="http://www.w3.org/1999/xlink" x="0px" y="0px"
	 viewBox="0 0 660.94 800.78" style="enable-background:new 0 0 660.94 800.78;" xml:space="preserve">
<g>
	<path d="M371.33,0.01c93.94,0,199.55,36.06,289.61,105.86l-13.38,36.84C560.21,76.72,460.84,43.38,371,43.38
		C176.96,42.06,47.23,198.28,47.23,400.39c0,200.6,129.86,357.36,324.08,357.36c88.94,0,189.04-33.81,276.27-99.49l13.35,36.75
		C571,764.49,464.41,800.77,371.32,800.78C147.63,800.78,0,621.82,0,400.39C0,177.45,147.63-1.51,371.32,0.01H371.33z"/>
</g>
<path d="M360.13,449.67h-154.7c0.1,8.65,0.04,17.31,0.03,25.96c0,4.54-1.56,7.1-5.17,8.57c-3.71,1.52-6.77,0.34-9.46-2.34
	c-17.68-17.69-35.34-35.39-53.08-53.01c-1.53-1.51-1.3-2.27,0.09-3.65c17.65-17.54,35.24-35.16,52.83-52.76
	c2.78-2.78,5.93-4.05,9.75-2.41c3.79,1.63,5.14,4.63,5.09,8.66c-0.11,8.6-0.05,17.21-0.04,25.81h154.66V449.67z"/>
<rect x="246.92" y="292.76" width="113.21" height="45.14"/>
<rect x="232.63" y="193.14" width="127.5" height="45.14"/>
<g>
	<path d="M506.17,301.98c0,18.57-11.02,28.71-23.24,28.71h-55.95v37.53h40.65l41.62,81.42h51.31l-50.36-85.81
		c23.15-8.98,39.88-31.33,39.88-61.78c0.24-39.88-28.83-66.18-63.52-66.18h-59.58v37.62h55.95
		C495.24,273.49,506.29,283.72,506.17,301.98z"/>
</g>
<path d="M450.61,159.41c-1.63,3.78-4.62,5.14-8.66,5.09c-7.02-0.09-14.05-0.07-21.07-0.05v285.22h-54.64V404.5h0.03v-66.6h-0.03
	v-45.14h0.03v-54.48h-0.03v-73.82c-7.08,0.03-14.15,0-21.23-0.01c-4.53,0-7.09-1.56-8.57-5.18c-1.51-3.71-0.33-6.77,2.34-9.45
	c17.69-17.68,35.4-35.34,53.02-53.08c1.51-1.53,2.27-1.3,3.64,0.09c17.55,17.65,35.16,35.24,52.76,52.83
	C450.99,152.44,452.26,155.59,450.61,159.41z"/>
</svg>
