<?xml version="1.0" encoding="utf-8"?>
<!-- Generator: Adobe Illustrator 26.3.1, SVG Export Plug-In . SVG Version: 6.00 Build 0)  -->
<svg version="1.1" id="Layer_1" xmlns="http://www.w3.org/2000/svg" xmlns:xlink="http://www.w3.org/1999/xlink" x="0px" y="0px"
	 viewBox="0 0 890.3 890.3" style="enable-background:new 0 0 890.3 890.3;" xml:space="preserve">
<style type="text/css">
	.st0{fill:#223064;}
	.st1{fill:#879BCA;}
</style>
<g>
	<path class="st0" d="M398.18,392.72h-51.81l-5.22,34.88c3.13-0.41,6.06-0.83,11.07-0.83c10.45,0,20.89,2.3,29.25,7.31
		c10.65,6.06,19.43,17.75,19.43,34.88c0,26.53-21.1,46.38-50.56,46.38c-14.83,0-27.36-4.18-33.84-8.36l4.59-14
		c5.64,3.33,16.71,7.51,29.04,7.51c17.34,0,32.16-11.27,32.16-29.45c-0.2-17.55-11.9-30.09-39.06-30.09
		c-7.73,0-13.79,0.85-18.8,1.47l8.77-65.17h64.97V392.72z"/>
	<path class="st0" d="M485.43,415.48c0,28.63-15.04,42.83-32.58,42.83c-16.92,0-31.55-13.57-31.75-40.94
		c0-27.16,14.82-42.41,32.8-42.41C472.9,374.96,485.43,389.58,485.43,415.48z M435.72,416.74c-0.42,17.33,6.06,30.5,17.55,30.5
		c12.11,0,17.54-12.96,17.54-30.92c0-16.5-4.8-30.29-17.54-30.29C441.78,386.03,435.72,399.6,435.72,416.74z M451.59,515.34
		l79.8-140.38h11.69l-79.8,140.38H451.59z M573.8,471.68c0,28.62-15.04,42.82-32.37,42.82c-16.92,0-31.54-13.57-31.76-40.73
		c0-27.36,14.83-42.61,32.8-42.61C561.47,431.15,573.8,445.77,573.8,471.68z M524.08,472.93c-0.21,17.35,6.47,30.5,17.75,30.5
		c12.12,0,17.55-12.95,17.55-30.92c0-16.5-4.81-30.29-17.55-30.29C530.35,442.22,524.08,455.8,524.08,472.93z"/>
</g>
<path class="st1" d="M320.23,86.79c-32.78,11.42-63.51,27.22-91.5,46.69l-38.71-53.24c33.52-23.5,70.43-42.48,109.85-56.07
	L320.23,86.79z"/>
<path class="st1" d="M437.06,0v65.83c-35.2,0.73-69.22,6.26-101.43,15.97l-20.36-62.63C353.9,7.4,394.76,0.75,437.06,0z"/>
<path class="st1" d="M215.64,143.01c-27.36,20.81-51.8,45.25-72.61,72.61l-53.27-38.69C114.64,144,144,114.64,176.93,89.76
	L215.64,143.01z"/>
<path class="st1" d="M133.51,228.7c-19.48,27.99-35.28,58.72-46.71,91.5l-62.63-20.34c13.6-39.41,32.57-76.32,56.07-109.84
	L133.51,228.7z"/>
<path class="st1" d="M81.81,335.59c-9.72,32.23-15.25,66.26-15.98,101.48H0c0.74-42.31,7.4-83.18,19.18-121.82L81.81,335.59z"/>
<path class="st1" d="M81.8,554.68l-62.62,20.37C7.4,536.41,0.75,495.55,0.01,453.25h65.82C66.56,488.45,72.09,522.47,81.8,554.68z"
	/>
<path class="st1" d="M133.5,661.59l-53.25,38.7c-23.5-33.52-42.48-70.43-56.07-109.84l62.61-20.37
	C98.22,602.87,114.02,633.6,133.5,661.59z"/>
<path class="st1" d="M215.63,747.27l-38.7,53.27c-32.93-24.88-62.29-54.24-87.17-87.17l53.27-38.7
	C163.83,702.03,188.27,726.47,215.63,747.27z"/>
<path class="st1" d="M320.23,803.51l-20.36,62.62c-39.42-13.59-76.33-32.57-109.85-56.07l38.69-53.26
	C256.7,776.28,287.44,792.08,320.23,803.51z"/>
<path class="st1" d="M437.06,824.47v65.83c-42.3-0.75-83.16-7.4-121.8-19.18l20.35-62.62C367.83,818.21,401.85,823.74,437.06,824.47
	z"/>
<path class="st1" d="M575.05,871.12c-38.64,11.78-79.5,18.43-121.81,19.18v-65.83c35.22-0.73,69.25-6.27,101.47-15.98L575.05,871.12
	z"/>
<path class="st1" d="M700.29,810.05c-33.52,23.5-70.43,42.48-109.84,56.07l-20.34-62.62c32.78-11.43,63.52-27.24,91.5-46.71
	L700.29,810.05z"/>
<path class="st1" d="M800.54,713.37c-24.88,32.93-54.24,62.29-87.17,87.17l-38.68-53.28c27.35-20.8,51.79-45.24,72.6-72.6
	L800.54,713.37z"/>
<path class="st1" d="M866.13,590.43c-13.59,39.42-32.57,76.33-56.07,109.85l-53.25-38.71c19.48-27.99,35.28-58.72,46.7-91.51
	L866.13,590.43z"/>
<path class="st1" d="M890.29,453.25c-0.74,42.29-7.39,83.15-19.16,121.78l-62.63-20.35c9.71-32.21,15.24-66.23,15.97-101.43H890.29z
	"/>
<path class="st1" d="M890.3,437.07h-65.83c-0.73-35.22-6.26-69.25-15.97-101.48l62.62-20.33C882.9,353.9,889.56,394.76,890.3,437.07
	z"/>
<path class="st1" d="M866.13,299.86L803.5,320.2c-11.43-32.78-27.22-63.5-46.69-91.48l53.25-38.7
	C833.56,223.54,852.53,260.45,866.13,299.86z"/>
<path class="st1" d="M800.54,176.93l-53.26,38.7c-20.81-27.36-45.25-51.8-72.61-72.61l38.69-53.26
	C746.29,114.64,775.66,144,800.54,176.93z"/>
<path class="st1" d="M700.28,80.24l-38.69,53.26c-27.98-19.47-58.71-35.27-91.49-46.7l20.33-62.63
	C629.85,37.76,666.76,56.74,700.28,80.24z"/>
<path class="st0" d="M575.04,19.18l-20.33,62.63c-32.22-9.71-66.25-15.25-101.47-15.98V0C495.54,0.75,536.4,7.4,575.04,19.18z"/>
</svg>
