<?xml version="1.0" encoding="utf-8"?>
<!-- Generator: Adobe Illustrator 26.3.1, SVG Export Plug-In . SVG Version: 6.00 Build 0)  -->
<svg version="1.1" id="Layer_1" xmlns="http://www.w3.org/2000/svg" xmlns:xlink="http://www.w3.org/1999/xlink" x="0px" y="0px"
	 viewBox="0 0 850.83 666.7" style="enable-background:new 0 0 850.83 666.7;" xml:space="preserve">
<style type="text/css">
	.st0{fill:#C02133;}
	.st1{fill:#223064;}
</style>
<path class="st0" d="M588.97,0l-255.6,124.19l259.26,125.36L842.2,126.52C773.9,92.58,588.97,0,588.97,0z"/>
<polygon class="st0" points="720.33,493.77 850.83,435.27 850.81,139.23 609.05,259.82 718.74,382.82 "/>
<polygon class="st0" points="706.54,666.7 703.01,390.24 597.9,270.6 599.26,547.81 "/>
<path class="st0" d="M344.84,150.89l-1.47,227.14h-10.65v-92.64h-55.88l-0.03,10.52c-14.25-9.81-27.27-15.33-41.87-15.33
	c-6.44,0-11.98,0.29-18.42,1.47V89.47L344.84,150.89z"/>
<g>
	<path class="st1" d="M129.15,461.71c-12.88,7.31-28.45,11.68-43.26,11.73c-27.5,0.11-52.33-14.63-52.33-52.97v-92.92H0v-24.48
		l31.96-6.24h1.61v-47.75H72.2v47.75h48.59v30.72H72.2v90.12c0,17.28,10.68,22.73,23.84,22.68c8.08-0.03,16.97-2.14,24.46-4.7
		L129.15,461.71z"/>
	<path class="st1" d="M284.91,296.84v19.86c-17.5-17.16-37.8-24.67-56.84-24.67c-6.44,0-12.6,0.87-18.42,2.57
		c-33.59,9.53-55.81,45.11-55.81,88.15c0,50.51,30.58,90.72,74.23,90.72c19.04,0,39.34-7.54,56.84-24.7v19.86h38.65v-171.8H284.91z
		 M284.91,415.79c-15.26,15.42-35.23,23.32-50.74,23.32c-25.82,0-40.62-22.29-40.62-56.38c0-21.01,5.73-37.55,16.11-47.12
		c6.46-5.96,14.71-9.23,24.51-9.23c15.51,0,35.49,7.9,50.74,23.32V415.79z"/>
	<path class="st1" d="M530.49,468.65H487.3l-46.62-62.89l-44.78,62.89h-42.92l65.31-89.5l-61.19-82.31l43.13,0l42.48,57.17
		l40.78-57.17l42.87,0l-61.27,83.87L530.49,468.65z"/>
</g>
</svg>
