<?xml version="1.0" encoding="utf-8"?>
<!-- Generator: Adobe Illustrator 26.3.1, SVG Export Plug-In . SVG Version: 6.00 Build 0)  -->
<svg version="1.1" id="Layer_1" xmlns="http://www.w3.org/2000/svg" xmlns:xlink="http://www.w3.org/1999/xlink" x="0px" y="0px"
	 viewBox="0 0 601.5 362" style="enable-background:new 0 0 601.5 362;" xml:space="preserve">
<style type="text/css">
	.st0{fill:#005686;}
</style>
<g>
	<path class="st0" d="M265,174c28.5-15,46.5-42,46.5-77c0-12.79-2.48-24.6-7.4-35.17C288.03,27.37,245.96,6,179,6H89.39v61H169
		c39.5,0,61,13.5,61,41s-21.5,41.5-61,41.5H89.39v59H183c42,0,64.5,14,64.5,43.5c0,30-22.5,43-64.5,43H89.39v61H189
		c62.37,0,104.51-16.08,125.19-45.3c9.83-13.87,14.81-30.71,14.81-50.2C329,216.5,304,186.5,265,174z"/>
	<rect y="6" class="st0" width="81.39" height="350"/>
	<path class="st0" d="M549.5,251.5l52,48C568.5,340,518,362,457,362c-54.45,0-101.97-19.01-135.81-51.3
		c9.83-13.87,14.81-30.71,14.81-50.2c0-44-20-75-59-87.5c28.5-15,41.5-41,41.5-76c0-12.79-2.48-24.6-7.4-35.17
		C345.28,23.19,397.09,0,457.5,0c60.5,0,111,22,144,62l-52,48c-23.5-27-53-41-88-41c-65.5,0-112,46-112,112
		c0,38.93,16.18,70.9,42.89,90.57v-16.8l41-21.89v57.09c2.62,0.6,5.29,1.1,8,1.51V228.6l41-21.89v84.52c2.71-0.48,5.37-1.05,8-1.71
		v-87.08l41-21.89v88.53C537.77,264.02,543.81,258.15,549.5,251.5z"/>
</g>
</svg>
