<?xml version="1.0" encoding="utf-8"?>
<!-- Generator: Adobe Illustrator 26.3.1, SVG Export Plug-In . SVG Version: 6.00 Build 0)  -->
<svg version="1.1" id="Layer_1" xmlns="http://www.w3.org/2000/svg" xmlns:xlink="http://www.w3.org/1999/xlink" x="0px" y="0px"
	 viewBox="0 0 603.89 362" style="enable-background:new 0 0 603.89 362;" xml:space="preserve">
<style type="text/css">
	.st0{fill:#005686;}
</style>
<g>
	<path class="st0" d="M551.89,251.5l52,48c-33,40.5-83.5,62.5-144.5,62.5c-55.3,0-103.45-19.61-137.38-52.82
		c-32.64-31.93-52.12-76.45-52.12-128.18c0-46.18,15.52-86.61,42.12-117.47C346.16,23.87,398.6,0,459.89,0c60.5,0,111,22,144,62
		l-52,48c-23.5-27-53-41-88-41c-65.5,0-112,46-112,112c0,39.43,16.6,71.72,43.93,91.33v-18.7l41-21.89v58.46
		c2.62,0.57,5.29,1.05,8,1.43v-64.17l41-21.89v85.47c2.7-0.5,5.37-1.1,8-1.79V201.3l41-21.89v88.83
		C540.82,263.38,546.51,257.79,551.89,251.5z"/>
	<path class="st0" d="M262.89,181c0-46.18,14.52-87.61,41.12-118.47c-0.29-0.69-0.6-1.37-0.91-2.04
		C287.03,26.03,245.96,5.66,179,5.66H89.39v61H169c39.5,0,61,13.5,61,41s-21.5,41.5-61,41.5H89.39v59H183c42,0,64.5,14,64.5,43.5
		c0,30-22.5,43-64.5,43H89.39v61H189c62.37,0,103.51-15.08,124.19-44.3c0.28-0.39,0.55-0.78,0.82-1.18
		C281.37,278.25,262.89,232.73,262.89,181z"/>
	<rect y="5.66" class="st0" width="81.39" height="350"/>
</g>
</svg>
