<?xml version="1.0" encoding="utf-8"?>
<!-- Generator: Adobe Illustrator 26.3.1, SVG Export Plug-In . SVG Version: 6.00 Build 0)  -->
<svg version="1.1" id="Layer_1" xmlns="http://www.w3.org/2000/svg" xmlns:xlink="http://www.w3.org/1999/xlink" x="0px" y="0px"
	 viewBox="0 0 871.31 363.88" style="enable-background:new 0 0 871.31 363.88;" xml:space="preserve">
<style type="text/css">
	.st0{fill:#FFFFFF;}
	.st1{font-family:'Halcom-Regular';}
	.st2{font-size:100px;}
	.st3{fill:#4959A8;}
	.st4{font-size:200px;}
	.st5{fill:url(#SVGID_1_);}
	.st6{fill:url(#SVGID_00000011722463203770415010000016959249265805588110_);}
	.st7{fill:url(#SVGID_00000170239728860628591750000003586237490835697282_);}
</style>
<g>
	<text transform="matrix(1 0 0 1 421.3462 84.9989)" class="st0 st1 st2">SPARKZ</text>
</g>
<text transform="matrix(1 0 0 1 352.9183 261.5874)" class="st3 st1 st4">PERT</text>
<text transform="matrix(1 0 0 1 1.220703e-04 261.5869)" class="st3 st1 st4">E</text>
<linearGradient id="SVGID_1_" gradientUnits="userSpaceOnUse" x1="131.9734" y1="185.8073" x2="352.9179" y2="185.8073">
	<stop  offset="0" style="stop-color:#C3D4ED"/>
	<stop  offset="0.1098" style="stop-color:#9EAED8"/>
	<stop  offset="0.3527" style="stop-color:#5166AD"/>
	<stop  offset="0.527" style="stop-color:#4655A0"/>
	<stop  offset="0.6642" style="stop-color:#5166AD"/>
	<stop  offset="0.9988" style="stop-color:#C3D4ED"/>
</linearGradient>
<path class="st5" d="M172.46,63.7l-40.49,0.1l44.52,60.25l33.02-10.2L172.46,63.7z M217.01,123.99l-33.02,10.22l45.46,61.49
	l12.48-38.01L217.01,123.99z M300.7,237.24l-33.02,10.22l44.69,60.46h40.55L300.7,237.24z M251.62,170.83l-12.48,38.01l21.04,28.47
	l33.02-10.2L251.62,170.83z"/>
<linearGradient id="SVGID_00000088120619358951722980000000612061434490079891_" gradientUnits="userSpaceOnUse" x1="245.9805" y1="130.4" x2="348.0576" y2="73.5284">
	<stop  offset="0.0203" style="stop-color:#BE7C46"/>
	<stop  offset="0.2859" style="stop-color:#E5A971"/>
	<stop  offset="1" style="stop-color:#FFE075"/>
</linearGradient>
<path style="fill:url(#SVGID_00000088120619358951722980000000612061434490079891_);" d="M402.26,9.51l-49.41,66.87
	c-21.64,29.28-43.26,58.55-64.9,87.83c-3.56,4.84-7.14,9.68-10.72,14.52c-6.58-8.65-13.14-17.32-19.7-25.97l13.37-40.8l53.21-73.49
	l21.06-29.09L402.26,9.51z"/>
<linearGradient id="SVGID_00000060008571761852700960000011776171653342815365_" gradientUnits="userSpaceOnUse" x1="122.2759" y1="319.002" x2="218.5201" y2="221.2995">
	<stop  offset="0" style="stop-color:#FFE075"/>
	<stop  offset="0.7141" style="stop-color:#E5A971"/>
	<stop  offset="0.9797" style="stop-color:#BE7C46"/>
</linearGradient>
<polygon style="fill:url(#SVGID_00000060008571761852700960000011776171653342815365_);" points="223.96,212.46 211.75,249.68 
	211.75,249.7 156.53,325.65 129.9,362.25 72.72,362.25 127.81,287.81 203.52,185.54 "/>
</svg>
