<?xml version="1.0" encoding="utf-8"?>
<!-- Generator: Adobe Illustrator 26.3.1, SVG Export Plug-In . SVG Version: 6.00 Build 0)  -->
<svg version="1.1" id="Layer_1" xmlns="http://www.w3.org/2000/svg" xmlns:xlink="http://www.w3.org/1999/xlink" x="0px" y="0px"
	 viewBox="0 0 871.31 352.86" style="enable-background:new 0 0 871.31 352.86;" xml:space="preserve">
<style type="text/css">
	.st0{fill:#4959A8;}
	.st1{font-family:'Halcom-Regular';}
	.st2{font-size:200px;}
	.st3{fill:url(#SVGID_1_);}
	.st4{fill:url(#SVGID_00000073690479187006209820000013451843051232673975_);}
	.st5{fill:url(#SVGID_00000130644050556168344690000004406620718528743087_);}
</style>
<text transform="matrix(1 0 0 1 352.9183 252.2005)" class="st0 st1 st2">PERT</text>
<text transform="matrix(1 0 0 1 1.220703e-04 252.2)" class="st0 st1 st2">E</text>
<linearGradient id="SVGID_1_" gradientUnits="userSpaceOnUse" x1="131.9734" y1="176.4204" x2="352.9179" y2="176.4204">
	<stop  offset="0" style="stop-color:#C3D4ED"/>
	<stop  offset="0.1098" style="stop-color:#9EAED8"/>
	<stop  offset="0.3527" style="stop-color:#5166AD"/>
	<stop  offset="0.527" style="stop-color:#4655A0"/>
	<stop  offset="0.6642" style="stop-color:#5166AD"/>
	<stop  offset="0.9988" style="stop-color:#C3D4ED"/>
</linearGradient>
<path class="st3" d="M172.46,54.31l-40.49,0.1l44.52,60.25l33.02-10.2L172.46,54.31z M217.01,114.6l-33.02,10.22l45.46,61.49
	l12.48-38.01L217.01,114.6z M300.7,227.85l-33.02,10.22l44.69,60.46h40.55L300.7,227.85z M251.62,161.44l-12.48,38.01l21.04,28.47
	l33.02-10.2L251.62,161.44z"/>
<linearGradient id="SVGID_00000116918230577319769460000017006141347030589115_" gradientUnits="userSpaceOnUse" x1="245.9805" y1="121.0131" x2="348.0576" y2="64.1415">
	<stop  offset="0.0203" style="stop-color:#BE7C46"/>
	<stop  offset="0.2859" style="stop-color:#E5A971"/>
	<stop  offset="1" style="stop-color:#FFE075"/>
</linearGradient>
<path style="fill:url(#SVGID_00000116918230577319769460000017006141347030589115_);" d="M402.26,0.12l-49.41,66.87
	c-21.64,29.28-43.26,58.55-64.9,87.83c-3.56,4.84-7.14,9.68-10.72,14.52c-6.58-8.65-13.14-17.32-19.7-25.97l13.37-40.8l53.21-73.49
	L345.18,0L402.26,0.12z"/>
<linearGradient id="SVGID_00000137104562735362127790000014802885243752491672_" gradientUnits="userSpaceOnUse" x1="122.2759" y1="309.6151" x2="218.5201" y2="211.9127">
	<stop  offset="0" style="stop-color:#FFE075"/>
	<stop  offset="0.7141" style="stop-color:#E5A971"/>
	<stop  offset="0.9797" style="stop-color:#BE7C46"/>
</linearGradient>
<polygon style="fill:url(#SVGID_00000137104562735362127790000014802885243752491672_);" points="223.96,203.07 211.75,240.29 
	211.75,240.31 156.53,316.26 129.9,352.86 72.72,352.86 127.81,278.42 203.52,176.15 "/>
</svg>
